<svg width="64" height="64" viewBox="0 0 64 64" fill="none" xmlns="http://www.w3.org/2000/svg">
  <!-- Background tile (rounded square) -->
  <rect width="64" height="64" rx="14" fill="#0D1B2E"/>

  <!-- Flame -->
  <path d="M33 12c-2 4-2 8 0 11 2-2 4-3 5-1 1 2 0 5-2 7 4-1 7-5 7-9 0-3-2-5-4-5-2 0-3-1-3-3 0 0-2 0-3 0z" fill="#FFFFFF"/>
  <path d="M30 17c-3 3-5 7-5 11 0 5 3 9 7 10 4 1 8-1 10-4-3 1-6 0-7-2-1-2 0-4 1-5 1-1 1-3 0-5-2-2-4-3-6-5z" fill="#FFFFFF"/>

  <!-- Twisted ribbon flowing down through laptop -->
  <path d="M30 32c-1 3 1 5 2 7-1 2-3 4-2 6 1 1 2 1 3 0 1-1 1-3 1-5 1-2 2-4 1-6-1-1-3-2-5-2z" fill="#FFFFFF"/>

  <!-- Laptop top frame (open) -->
  <rect x="16" y="40" width="32" height="11" rx="1.5" stroke="#FFFFFF" stroke-width="2" fill="none"/>

  <!-- Laptop base -->
  <path d="M11 51 L53 51 L51 54 L13 54 Z" fill="#FFFFFF"/>

  <!-- TM mark -->
  <circle cx="51" cy="13" r="4.5" fill="#FFFFFF"/>
  <text x="51" y="14.5" font-family="Arial, sans-serif" font-size="4.5" font-weight="900" text-anchor="middle" fill="#0D1B2E" dominant-baseline="middle">TM</text>
</svg>
